<mxfile host="app.diagrams.net" modified="2024-06-18T13:27:27.832Z" agent="Mozilla/5.0 (X11; Linux x86_64) AppleWebKit/537.36 (KHTML, like Gecko) Chrome/125.0.0.0 Safari/537.36" version="24.5.5" etag="6ErOyJ6ZZ9I79l_gBMaf" type="github">
  <diagram name="Page-1" id="Vl-lDc0opQZrcM1Lta2W">
    <mxGraphModel>
      <root>
        <mxCell id="0" />
        <mxCell id="1" parent="0" />
      </root>
    </mxGraphModel>
  </diagram>
</mxfile>
